<?xml version="1.0" encoding="UTF-8"?>
<svg xmlns="http://www.w3.org/2000/svg" version="1.1" viewBox="0 0 1080 450">
  <defs>
    <style>
      .cls-1, .cls-2, .cls-3 {
        fill: none;
      }

      .cls-4, .cls-5 {
        fill: #6bb748;
      }

      .cls-6 {
        fill: #002b00;
        fill-rule: evenodd;
      }

      .cls-2, .cls-7, .cls-5 {
        stroke: #fff;
        stroke-miterlimit: 10;
      }

      .cls-8, .cls-7 {
        fill: #00512d;
      }

      .cls-9 {
        fill: #fff;
      }

      .cls-3 {
        stroke: #000;
      }
    </style>
  </defs>
  <!-- Generator: Adobe Illustrator 28.6.0, SVG Export Plug-In . SVG Version: 1.2.0 Build 709)  -->
  <g>
    <g id="Capa_1">
      <g>
        <path class="cls-6" d="M983.2,97.5C831.2,25.8,602.5,21.2,534.5,21.2c-283.3,0-513,90.7-513,205.7,0,115,229.7,208.3,513,208.3,283.3,0,523.4-113.3,525-200.1.2-13.3,30.3-87.4-76.3-137.7Z"/>
        <g>
          <path class="cls-9" d="M212.5,120.7c-.9-3.5-2.7-7.1-5.3-10.6l-1.8-2.5,1.8-2.5h50.9c8.4,0,14.1-1,17-3l2.8-2.1,2.3,2.1v28.8l-4.6,1.6c-2.8-8.3-5.5-14-8.2-17-2.7-3.1-6.5-4.6-11.4-4.6h-10.4c-4,0-6.6.7-7.8,2.2-1.2,1.5-1.8,4.6-1.8,9.3v32.7h16.6c4.6,0,8-.5,10.2-1.4,2.2-.9,3.9-2.8,5-5.5l1.2-3.2,3,1.8v25.8l-5.1,1.8-.9-5.1c-.6-3.2-2.3-5.4-5.1-6.7-2.8-1.2-7.2-1.8-13.4-1.8h-11.5v34.8c0,4.6.7,7.6,2.1,9.1,1.4,1.5,4.5,2.2,9.2,2.2h11.3c4.6,0,8.3-1.6,10.9-4.8,2.7-3.2,5.3-8.8,7.7-16.8l4.8,1.6v27.6l-2.5,2.1c-2.2-1.5-4.6-2.6-7.4-3.1-2.8-.5-6.6-.8-11.5-.8h-57.8l-1.6-4.1c3.8-1.1,6.6-2.1,8.3-3.1,1.7-1,2.8-2.3,3.5-4,.6-1.7.9-4.3.9-7.8v-58.3c0-6.1-.5-11-1.4-14.5Z"/>
          <path class="cls-9" d="M310.8,164.4c-3.2,0-5.8-1-7.6-2.9-1.8-1.9-2.8-4.6-2.8-8.2,0-5.2,2.6-9.4,7.7-12.5,5.1-3.1,11.9-4.7,20.1-4.7s17.5,2.2,23.1,6.4c5.6,4.3,8.4,10.1,8.4,17.5v39.8c0,4.3,1.5,6.4,4.6,6.4s5.8-1.2,8.5-3.5l1.8,2.3c-5.7,6.3-12.4,9.4-20.3,9.4s-8.1-1.2-10.5-3.5c-2.4-2.3-3.8-5.9-4.3-10.8h-.9c-2.5,4.5-5.7,7.9-9.8,10.5-4.1,2.5-8.7,3.8-13.9,3.8s-10.5-1.8-14-5.4c-3.5-3.6-5.3-8.3-5.3-14.2s3.1-11.8,9.4-15.7c6.3-3.8,14.8-5.8,25.6-5.8s4.8.2,8.5.5v-11.5c0-7.5-.9-12.9-2.8-16.2-1.8-3.3-4.8-5-9-5s-5.2.9-6.9,2.8c-1.7,1.8-2.5,4.2-2.5,7.1,0,4.6,1.4,8.1,4.1,10.4-3.2,1.8-7.1,2.8-11.5,2.8ZM339.4,178.5c-7.7,0-13.4,1.3-17.3,3.8-3.8,2.5-5.8,6.1-5.8,10.7s.8,5.5,2.5,7.4c1.7,1.8,4,2.8,6.9,2.8,9.1,0,13.6-8.2,13.6-24.6Z"/>
          <path class="cls-9" d="M442.1,140.4c3.1,2.8,4.6,6.5,4.6,10.9s-1.2,7.5-3.7,10c-2.5,2.5-5.7,3.8-9.7,3.8s-5.9-.6-8.5-1.8c2.8-2.3,4.1-5.8,4.1-10.4s-.5-3.8-1.4-5.1c-.9-1.2-2.2-1.8-3.7-1.8-3.7,0-6.8,3.7-9.2,11.2-2.5,7.4-3.7,16.7-3.7,27.7s.3,10.2,1,13.6c.7,3.4,1.9,6.5,3.6,9.4l1.8,2.3-1.8,2.3h-33.4l-1.4-3.9,3.2-.7c2.5-.6,4.1-1.6,4.8-2.9.8-1.3,1.2-3.9,1.2-7.7v-44.9c0-2.9-1-4.4-3-4.4h-7.1l-.9-2.5c2.9-2.6,6.6-4.8,10.9-6.4,4.4-1.7,8.7-2.5,13-2.5s3.6.5,4.8,1.4c1.2.9,1.8,2.2,1.8,3.7v16.8h.7c3.2-14.9,9.8-22.3,19.8-22.3s8.9,1.4,12,4.3Z"/>
          <path class="cls-9" d="M464.9,210.4c-2.8-2.8-4.1-7.5-4.1-13.9v-48.8h-11.5c0-2.6.1-4.3.5-5.1.3-.8,1.2-1.4,2.8-1.8,5.1-1.4,9.1-3.5,12-6.4,2.9-2.9,5.3-7.1,7.1-12.7.5-1.7,1.2-2.7,2.3-3.1,1.1-.4,3.7-.6,7.8-.6v20.7h18.9c0,2-.3,3.8-.9,5.4-.6,1.6-1.5,2.8-2.5,3.6h-15.4v51.8c0,4.6,1.9,6.9,5.8,6.9s3.6-.5,5.6-1.6c2.1-1.1,4-2.5,5.6-4.4l1.8,2.3c-6.6,8-14,12-22.1,12s-10.8-1.4-13.6-4.3Z"/>
          <path class="cls-9" d="M590.4,206.3c2.9,0,5.8-1.2,8.5-3.5l1.8,2.3c-5.7,6.3-12.4,9.4-20,9.4s-9.5-1.4-11.9-4.3c-2.4-2.8-3.6-7.5-3.6-13.9v-35.2c0-8.9-2.8-13.4-8.5-13.4s-10,3.8-13.4,11.3c-3.4,7.5-5.1,17.3-5.1,29.5s.3,8.6,1,11.4c.7,2.8,1.9,5.5,3.6,7.9l1.8,2.3-1.8,2.3h-33.4l-1.4-3.9,3.2-.7c2.5-.6,4.1-1.6,4.8-2.9.8-1.3,1.2-3.9,1.2-7.7v-82.2c0-1.2-.3-2.2-.8-3-.5-.8-1.3-1.2-2.2-1.2h-7.1l-.9-2.3c2.9-2.8,6.7-5,11.4-6.6,4.7-1.6,9.3-2.4,13.9-2.4s3.6.4,4.8,1.3c1.2.8,1.8,2,1.8,3.6v56.9c2.1-7.2,5.9-13.2,11.4-18.1,5.4-4.8,11.2-7.3,17.4-7.3s11.4,2.2,14.4,6.4c3,4.3,4.5,11.1,4.5,20.5v36.4c0,4.6,1.5,6.9,4.4,6.9Z"/>
          <path class="cls-9" d="M639.4,206.3c2.9,0,5.8-1.2,8.5-3.5l1.8,2.3c-5.4,6.3-12.1,9.4-20,9.4s-9.3-1.3-11.7-3.8c-2.5-2.5-3.7-6.6-3.7-12.1v-84.5c0-2.1-1-3.2-3-3.2h-7.4l-.7-2.3c2.9-2.8,6.7-5,11.4-6.6,4.7-1.6,9.3-2.4,13.9-2.4s3.6.4,4.7,1.3c1.2.8,1.7,2,1.7,3.6v94.9c0,4.6,1.5,6.9,4.4,6.9Z"/>
          <path class="cls-9" d="M730.1,136.6v76c0,12.1-3.5,21.5-10.5,28.2-7,6.7-16.7,10-29.1,10s-13.9-1.5-18.7-4.4c-4.8-2.9-7.1-6.8-7.1-11.5s1.2-7.5,3.7-10c2.5-2.5,5.7-3.8,9.7-3.8s5.8.6,8.5,1.8c-2.8,2.8-4.1,6.5-4.1,11.3s1,6.1,3.1,8.3c2.1,2.1,4.7,3.2,7.9,3.2,10.7,0,16.1-8.8,16.1-26.3v-29.2c-2,5.8-5.5,10.6-10.5,14.4-5,3.8-10.3,5.6-16,5.6s-11.7-2.1-15-6.2c-3.2-4.1-4.8-10.4-4.8-18.9v-34.3c0-2.1-1-3.2-3-3.2h-7.1l-.7-2.5c2.9-2.6,6.8-4.8,11.5-6.4,4.8-1.7,9.3-2.5,13.6-2.5s3.6.5,4.7,1.4,1.7,2.2,1.7,3.7v46.5c0,8.6,2.7,12.9,8.1,12.9s9.4-3.1,12.7-9.4c3.2-6.3,4.8-14.7,4.8-25.1s-.5-10.1-1.4-13.6c-.9-3.5-2.4-6.6-4.4-9.2l-1.8-2.5,1.6-2.1,26.5-2.1Z"/>
          <path class="cls-9" d="M345.7,297.5l-1.8,2.5c-2.2,2.8-3.6,5.8-4.3,9-.7,3.2-1,8.1-1,14.7v19.8l-2.3.9-12-6.2c-7.5,4.9-16,7.4-25.3,7.4-15.4,0-27.5-5-36.5-15-9-10-13.5-23.4-13.5-40.3s4.9-31.1,14.6-41.2c9.7-10.1,22.9-15.2,39.5-15.2s19.2,2,25.9,6.1c6.7,4.1,10,9.4,10,16s-2.7,11.5-8.1,15.2c-5.4,3.7-12.1,5.5-20.3,5.5,2.1-2.6,3.8-5.4,5.1-8.4,1.2-3,1.8-6.9,1.8-11.6s-1.5-9.4-4.6-12.5c-3.1-3.1-6.9-4.7-11.5-4.7-8.6,0-15.5,4.6-20.6,13.9-5.1,9.3-7.7,21.6-7.7,37s1.3,17.2,4,24.3c2.7,7.1,6.4,12.7,11.2,16.7,4.8,4,10.2,6,16.3,6s9.1-.8,13.4-2.5v-20.7c0-3.5-.3-6.1-.9-7.7-.6-1.6-1.8-2.9-3.5-3.9-1.7-1-4.5-2-8.3-3.1l1.4-4.4h37.1l1.8,2.5Z"/>
          <path class="cls-9" d="M366.6,277.7c7-7.1,16.5-10.6,28.4-10.6s21.5,3.6,28.6,10.7c7.1,7.1,10.6,16.7,10.6,28.7s-3.5,21.5-10.6,28.6c-7.1,7.1-16.6,10.6-28.6,10.6s-21.5-3.5-28.4-10.6c-7-7.1-10.5-16.6-10.5-28.6s3.5-21.7,10.5-28.8ZM406.5,281.8c-2.9-6.5-6.6-9.8-11.1-9.8s-8.9,3.2-12,9.6c-3.1,6.4-4.6,14.7-4.6,25s1.4,18.7,4.3,24.9c2.8,6.1,6.6,9.2,11.4,9.2s8.7-3.1,11.7-9.3c3.1-6.2,4.6-14.3,4.6-24.3s-1.5-18.7-4.4-25.2Z"/>
          <path class="cls-9" d="M490,339.2c-5.3,4.3-10.9,6.4-16.9,6.4s-11.7-2.1-15-6.4c-3.2-4.3-4.8-10.9-4.8-19.8v-37.5c0-2.1-1-3.2-3-3.2h-7.1l-.7-2.5c3.1-2.6,6.9-4.8,11.5-6.4,4.6-1.7,9.1-2.5,13.6-2.5s3.6.5,4.7,1.4,1.7,2.2,1.7,3.7v46.1c0,5.2.8,9.3,2.3,12.1,1.5,2.8,3.7,4.3,6.4,4.3,5.7,0,10.2-3.5,13.7-10.5,3.5-7,5.2-16.1,5.2-27.3s-.4-10.6-1.3-13.9c-.8-3.3-2.3-6.2-4.5-8.6l-2.1-2.5,1.8-2.1,26.5-2.1v62.9c0,4.6,1.4,6.9,4.1,6.9s5.8-1.2,8.5-3.5l1.8,2.3c-5.4,6.3-12.1,9.4-20,9.4s-9.9-1.7-12.1-5.1c-2.2-3.4-3.3-9.4-3.3-18-2.2,6.8-5.9,12.3-11.2,16.6Z"/>
          <path class="cls-9" d="M605.7,271.4c3.1,2.8,4.6,6.5,4.6,10.9s-1.2,7.5-3.7,10c-2.5,2.5-5.7,3.8-9.7,3.8s-5.9-.6-8.5-1.8c2.8-2.3,4.1-5.8,4.1-10.4s-.5-3.8-1.4-5.1c-.9-1.2-2.2-1.8-3.7-1.8-3.7,0-6.8,3.7-9.2,11.2-2.5,7.4-3.7,16.7-3.7,27.7s.3,10.2,1,13.6c.7,3.4,1.9,6.5,3.6,9.4l1.8,2.3-1.8,2.3h-33.4l-1.4-3.9,3.2-.7c2.5-.6,4.1-1.6,4.8-2.9.8-1.3,1.2-3.9,1.2-7.7v-44.9c0-2.9-1-4.4-3-4.4h-7.1l-.9-2.5c2.9-2.6,6.6-4.8,10.9-6.4,4.4-1.7,8.7-2.5,13-2.5s3.6.5,4.8,1.4c1.2.9,1.8,2.2,1.8,3.7v16.8h.7c3.2-14.9,9.8-22.3,19.8-22.3s8.9,1.4,12,4.3Z"/>
          <path class="cls-9" d="M693.4,292.5h.5c2.1-7.4,5.7-13.4,10.6-18.2,4.9-4.8,10.1-7.1,15.7-7.1s11.4,2.2,14.4,6.6c3,4.4,4.5,11.2,4.5,20.4v36.4c0,4.6,1.5,6.9,4.4,6.9s5.8-1.2,8.5-3.5l1.8,2.3c-5.7,6.3-12.4,9.4-20,9.4s-9.7-1.5-12-4.5c-2.3-3-3.5-8.3-3.5-15.8v-33.2c0-8.9-2.9-13.4-8.7-13.4s-8.8,4.1-11.5,12.3c-2.8,8.2-4.1,17.7-4.1,28.4.2,4.8.6,8.5,1.3,11.3.7,2.8,1.9,5.5,3.6,8.1l1.8,2.3-1.8,2.3h-25.6v-51.4c0-8.9-2.9-13.4-8.8-13.4s-8.8,4.1-11.5,12.3c-2.8,8.2-4.1,17.7-4.1,28.4s.3,8.5,1,11.3c.7,2.8,2,5.5,3.8,8.1l1.8,2.3-1.8,2.3h-33.4l-1.4-3.9,3.2-.7c2.5-.6,4.1-1.6,4.8-2.9.8-1.3,1.2-3.9,1.2-7.7v-44.9c0-2.3-1-3.5-3-3.5h-7.4l-.7-2.3c3.1-2.6,6.9-4.8,11.5-6.4,4.6-1.7,9.2-2.5,13.8-2.5s3.6.4,4.7,1.3c1.2.8,1.7,2,1.7,3.6v18.9c2-7.1,5.4-13,10.1-18,4.8-4.9,10.1-7.4,16.1-7.4s10.9,2,13.8,6.1c2.9,4.1,4.5,10.5,4.6,19.2Z"/>
          <path class="cls-9" d="M816.2,335.6c3.4-1.6,6.7-4.3,9.9-8.2l2.8,2.1c-3.5,5.1-8,9-13.5,11.9-5.5,2.8-11.4,4.3-17.8,4.3s-13.4-1.7-19-5.1c-5.6-3.4-10-8-13.2-13.9-3.2-5.9-4.8-12.6-4.8-20.1,0-12,3.6-21.5,10.9-28.7,7.3-7.1,17-10.7,29.1-10.7s15.6,2,21.1,6.1c5.4,4.1,8.2,9.3,8.2,15.8s-3.1,13.2-9.3,17.6c-6.2,4.4-14.7,6.6-25.4,6.6s-8.2-.3-11.7-.9c.8,8,3.1,14.3,6.9,18.9,3.8,4.6,8.6,6.9,14.3,6.9s8.4-.8,11.7-2.4ZM786.8,281.3c-2.7,5.8-4,13.8-4,24.1v3.7c1.7,0,3.8-.2,6.2-.5,6.4-.8,11.4-2.9,14.9-6.3,3.5-3.5,5.2-8,5.2-13.7s-1-8.4-3.1-11.4c-2.1-3-4.7-4.5-7.9-4.5-4.8,0-8.5,2.9-11.2,8.6Z"/>
          <path class="cls-9" d="M851.8,341.4c-2.8-2.8-4.1-7.5-4.1-13.9v-48.8h-11.5c0-2.6.1-4.3.5-5.1.3-.8,1.2-1.4,2.8-1.8,5.1-1.4,9.1-3.5,12-6.4,2.9-2.9,5.3-7.1,7.1-12.7.5-1.7,1.2-2.7,2.3-3.1,1.1-.4,3.7-.6,7.8-.6v20.7h18.9c0,2-.3,3.8-.9,5.4-.6,1.6-1.5,2.8-2.5,3.6h-15.4v51.8c0,4.6,1.9,6.9,5.8,6.9s3.6-.5,5.6-1.6c2.1-1.1,4-2.5,5.6-4.4l1.8,2.3c-6.6,8-14,12-22.1,12s-10.8-1.4-13.6-4.3Z"/>
        </g>
        <g>
          <path class="cls-1" d="M119.1,120c16.7-9.9,35.4-19.2,55.8-27.9-20.7,8.6-39.4,17.9-55.8,27.9Z"/>
          <path class="cls-1" d="M308.3,400.9c-20.5-3.9-40.3-8.3-59.2-13.2,18.8,4.9,38.6,9.3,59.2,13.2Z"/>
          <path class="cls-8" d="M1057,220.8c0,.2,0,.4,0-.1,0,107.2-266.4,199.8-530.3,199.8s-151.8-7-218.4-19.6c-20.6-3.9-40.3-8.3-59.2-13.2C119.7,354.2,31.7,297,31.7,230.8s32.7-78.2,87.5-110.8c16.4-10,35.1-19.3,55.8-27.9,91.1-38.5,217.3-63.3,351.7-63.4,141.8,0,382.5,14,493.5,91C854,4.5,594.6,11.8,526.7,11.8,243.3,11.8,12.9,115.7,12.9,230.8s230.4,207.5,513.7,207.5,532.9-97,532.9-212-2.4-4.2-2.6-5.5Z"/>
          <path class="cls-4" d="M1057,220.8c0-.3,0-.8,0-.1,0,.5,0,.4,0,.1Z"/>
          <path class="cls-4" d="M526.4,28.7c-134.5,0-260.3,24.8-351.4,63.4-20.5,8.6-39.2,18-55.8,27.9-54.8,32.6-87.5,71.3-87.5,111.6,0,66.2,88,122.6,217.4,156.2,18.9,4.9,38.7,9.3,59.2,13.2,66.6,12.6,140.9,19.6,218.1,19.6,263.9,0,530.6-92.6,530.6-199.8-4.6,100-283.2,189.1-530.6,189.1S45.8,334.1,45.8,232.5,263.9,38.6,527.7,38.6s392.5,16.1,492.5,81.1C860.5,15.9,589.7,28.7,526.4,28.7Z"/>
        </g>
        <path class="cls-2" d="M989.2,125.8"/>
        <g>
          <g>
            <g>
              <path class="cls-5" d="M1052.5,161.7c-14.3-20.1-36.1-34.1-60.7-38.4,42.7,15.6,62.2,86.8,60.2,137.2,11.5-11.9,27.1-59.3.5-98.8Z"/>
              <path class="cls-7" d="M991.8,123.2c38.6,30.2-1.4,121.2,60.2,137.2,2.1-50.4-17.5-121.6-60.2-137.2Z"/>
            </g>
            <g>
              <line class="cls-4" x1="1051" y1="230.7" x2="1057" y2="209.3"/>
              <polygon class="cls-9" points="1050.5 230.6 1057 209.3 1051.5 230.9 1050.5 230.6"/>
            </g>
            <g>
              <line class="cls-4" x1="1050.6" y1="229.9" x2="1036.5" y2="215.3"/>
              <polygon class="cls-9" points="1050.3 230.2 1036.5 215.3 1051 229.6 1050.3 230.2"/>
            </g>
            <g>
              <line class="cls-4" x1="1048" y1="211.5" x2="1051.5" y2="194.1"/>
              <polygon class="cls-9" points="1047.5 211.4 1051.5 194.1 1048.4 211.6 1047.5 211.4"/>
            </g>
            <g>
              <line class="cls-4" x1="1048" y1="210.8" x2="1037.2" y2="202.1"/>
              <polygon class="cls-9" points="1047.6 211.2 1037.2 202.1 1048.3 210.4 1047.6 211.2"/>
            </g>
            <g>
              <line class="cls-4" x1="1044.8" y1="197.6" x2="1046.7" y2="182.9"/>
              <polygon class="cls-9" points="1044.3 197.6 1046.7 182.9 1045.3 197.7 1044.3 197.6"/>
            </g>
            <g>
              <line class="cls-4" x1="1044.7" y1="197.6" x2="1035" y2="186.7"/>
              <polygon class="cls-9" points="1044.3 198 1035 186.7 1045.1 197.3 1044.3 198"/>
            </g>
          </g>
          <g>
            <line class="cls-4" x1="1040.3" y1="183.1" x2="1040.2" y2="169.2"/>
            <polygon class="cls-9" points="1039.8 183.1 1040.2 169.2 1040.8 183.1 1039.8 183.1"/>
          </g>
          <g>
            <line class="cls-4" x1="1040" y1="182.5" x2="1031.3" y2="171.6"/>
            <polygon class="cls-9" points="1039.6 182.8 1031.3 171.6 1040.4 182.1 1039.6 182.8"/>
          </g>
        </g>
        <g>
          <g>
            <g>
              <path class="cls-5" d="M1030.6,202.8c-13.3-9.7-30-13.9-46.4-11.5,30.2.9,57.5,41.7,66.8,73.9,4.7-9.9,4.6-43.1-20.5-62.4Z"/>
              <path class="cls-7" d="M984.2,191.3c30.7,10.9,24.6,76.8,66.8,73.9-9.3-32.2-36.6-73-66.8-73.9Z"/>
            </g>
            <g>
              <line class="cls-4" x1="1044.2" y1="246.7" x2="1043.5" y2="231.9"/>
              <polygon class="cls-9" points="1043.7 246.7 1043.5 231.9 1044.7 246.7 1043.7 246.7"/>
            </g>
            <g>
              <line class="cls-4" x1="1043.8" y1="246.2" x2="1031.8" y2="240"/>
              <polygon class="cls-9" points="1043.6 246.7 1031.8 240 1044 245.8 1043.6 246.7"/>
            </g>
            <g>
              <line class="cls-4" x1="1038.2" y1="235.2" x2="1036.8" y2="223.5"/>
              <polygon class="cls-9" points="1037.7 235.2 1036.8 223.5 1038.7 235.1 1037.7 235.2"/>
            </g>
            <g>
              <line class="cls-4" x1="1038.1" y1="234.7" x2="1029.5" y2="231.5"/>
              <polygon class="cls-9" points="1037.9 235.2 1029.5 231.5 1038.3 234.3 1037.9 235.2"/>
            </g>
            <g>
              <line class="cls-4" x1="1033.3" y1="227.1" x2="1031.5" y2="217.4"/>
              <polygon class="cls-9" points="1032.8 227.2 1031.5 217.4 1033.8 227 1032.8 227.2"/>
            </g>
            <g>
              <line class="cls-4" x1="1033.3" y1="227.1" x2="1024.9" y2="222.3"/>
              <polygon class="cls-9" points="1033 227.6 1024.9 222.3 1033.5 226.7 1033 227.6"/>
            </g>
          </g>
          <g>
            <line class="cls-4" x1="1027.4" y1="218.9" x2="1024.5" y2="210.1"/>
            <polygon class="cls-9" points="1026.9 219 1024.5 210.1 1027.9 218.7 1026.9 219"/>
          </g>
          <g>
            <line class="cls-4" x1="1027.1" y1="218.6" x2="1019.3" y2="213.6"/>
            <polygon class="cls-9" points="1026.8 219 1019.3 213.6 1027.4 218.1 1026.8 219"/>
          </g>
        </g>
      </g>
      <g>
        <path class="cls-3" d="M947.2,363.5c0,4.7,3.5,8.4,8.2,8.4s8-3.7,8-8.4-3.4-8.5-8.1-8.5-8.2,3.8-8.2,8.4Z"/>
        <path d="M952.8,359.6c.6-.1,1.4-.2,2.2-.2s1.9.2,2.5.7c.4.4.7.9.7,1.6,0,1-.7,1.8-1.5,2h0c.6.3.9.8,1.1,1.6.3,1,.5,1.9.6,2.3h-1.5c-.1-.2-.3-.9-.5-1.9-.2-1.1-.6-1.4-1.5-1.4h-.7v3.3h-1.5v-8ZM954.2,363.1h.9c1,0,1.6-.5,1.6-1.3s-.6-1.3-1.6-1.3c-.5,0-.8,0-.9,0v2.6Z"/>
      </g>
    </g>
  </g>
</svg>