<?xml version="1.0" encoding="UTF-8"?>
<svg xmlns="http://www.w3.org/2000/svg" version="1.1" viewBox="0 0 407 207.8">
  <defs>
    <style>
      .cls-1 {
        fill: #7fc142;
      }

      .cls-2 {
        fill: #fff;
      }

      .cls-3 {
        fill: #088b45;
      }

      .cls-4 {
        fill: #005c3b;
      }
    </style>
  </defs>
  <!-- Generator: Adobe Illustrator 28.7.1, SVG Export Plug-In . SVG Version: 1.2.0 Build 142)  -->
  <g>
    <g id="Layer_1">
      <g>
        <polygon class="cls-4" points="207 97.9 207 199.6 203.2 207.8 213.8 207.8 213.8 97.9 207 97.9"/>
        <polygon class="cls-4" points="213.8 10.8 206.2 10.8 194.7 10.8 175.6 10.8 175.6 49.6 213.8 49.6 213.8 10.8"/>
        <polygon class="cls-1" points="206.3 76.3 203.2 76.3 207 87.7 207 97.9 213.8 97.9 213.8 49.6 175.6 49.6 175.6 73.2 206.3 73.2 206.3 76.3"/>
        <path class="cls-1" d="M279.7,196.3v-29.7h12.8v-38.1c0-7.8,1.9-15.5,5.5-22.4l1.6-3.1v-5.1h-85.8v109.9h55.2v-11.5h10.7Z"/>
        <rect class="cls-3" x="194.7" width="11.4" height="10.8"/>
        <polygon class="cls-1" points="213.8 10.8 213.8 49.6 299.6 49.6 299.6 10.8 221.5 10.8 221.5 0 206.2 0 206.2 10.8 213.8 10.8"/>
        <path class="cls-2" d="M213.8,97.9h85.8v-48.3h-85.8v48.3ZM277.3,74.7c.6,4.4-.9,9-4.2,12.4s-8,4.8-12.4,4.2c-.6-4.4.9-9,4.2-12.4s8-4.8,12.4-4.2ZM260,55.1c3.5,2.7,5.8,7,5.8,11.7s-2.3,9-5.8,11.7c-3.5-2.7-5.8-7-5.8-11.7s2.3-9,5.8-11.7ZM242.7,74.7c4.4-.6,9,.9,12.4,4.2s4.8,8,4.2,12.4c-4.4.6-9-.9-12.4-4.2s-4.8-8-4.2-12.4Z"/>
        <path class="cls-4" d="M260,78.6c3.5-2.7,5.8-7,5.8-11.7s-2.3-9-5.8-11.7c-3.5,2.7-5.8,7-5.8,11.7s2.3,9,5.8,11.7Z"/>
        <path class="cls-4" d="M260.7,91.3c4.4.6,9-.9,12.4-4.2s4.8-8,4.2-12.4c-4.4-.6-9,.9-12.4,4.2s-4.8,8-4.2,12.4Z"/>
        <path class="cls-4" d="M259.3,91.3c.6-4.4-.9-9-4.2-12.4s-8-4.8-12.4-4.2c-.6,4.4.9,9,4.2,12.4s8,4.8,12.4,4.2Z"/>
        <path class="cls-3" d="M163.2,87.7v111.9h-10.7s10.7,0,10.7,0h43.8v-111.9h-43.8ZM176.7,126.6c0-.2.1-.3.2-.5,2.3,0,4.5-.7,6.5-1.9.2.9.6,1.8,1,2.7,0,.6-.2,1.2-.3,1.8h0c-.8,3.1-2.9,5.7-5.8,7.1-1.8-2.7-2.3-5.9-1.5-9.1ZM180,136.6c1.2-.8,2.3-1.7,3.2-2.8.4,2.1,1.4,4.1,2.9,5.8-.6,1.2-1.5,2.3-2.5,3.3-1.9-1.6-3.1-3.8-3.6-6.2ZM184.8,131.4c.4-.8.7-1.6.9-2.5.7.8,1.4,1.6,2.3,2.3l.5.4.5-.4c.9-.7,1.6-1.4,2.3-2.3.2.9.6,1.7.9,2.5,0,3.1-1.4,6-3.8,8-2.3-2-3.7-4.9-3.8-8ZM188.5,146.1c-1.1-.9-1.9-2.1-2.5-3.3.6-.6,1-1.3,1.4-2,.2.2.4.3.6.5l.5.4.5-.4c.2-.2.4-.3.6-.5.4.7.9,1.4,1.4,2-.6,1.2-1.5,2.3-2.5,3.3ZM193.4,142.8c-1.1-.9-1.9-2-2.5-3.3,1.4-1.7,2.4-3.6,2.9-5.8.9,1.1,2,2.1,3.2,2.8-.5,2.4-1.7,4.6-3.6,6.2ZM198.8,135.6c-2.9-1.4-5-4-5.8-7.1-.2-.6-.2-1.2-.3-1.8.4-.8.7-1.7,1-2.7,1.9,1.2,4.2,1.9,6.5,1.9,0,.2.1.3.2.5.8,3.1.3,6.4-1.5,9.1ZM193.6,121.9l-1.2-1-.2,1.5c-.3,2.7-1.6,5.1-3.7,6.9-2-1.8-3.3-4.2-3.7-6.9l-.2-1.5-1.2,1c-2.1,1.7-4.9,2.5-7.6,2.4-.2-3.2,1-6.3,3.2-8.6,2.4-2.4,5.8-3.6,9.3-3.2h0s.1,0,.1,0h.1s0,0,0,0c3.4-.4,6.8.7,9.3,3.2,2.3,2.3,3.4,5.4,3.2,8.6-2.7.2-5.5-.7-7.6-2.4Z"/>
        <path class="cls-4" d="M163.2,87.7h-13.2c1.5,2.6,2.4,5.7,2.4,9v102.9h10.7v-111.9Z"/>
        <path class="cls-1" d="M163.1,87.7l3.8-11.5h-4.3v-3.1h-13.8v3.1h3.1l-3.2,9.5c.5.6.9,1.2,1.3,1.9h13.1Z"/>
        <path class="cls-2" d="M163.2,199.6l3.8,8.2h-14.5v-8.2h0v-27.8h-45c.2.9.4,1.8.4,2.8v1.5c0,6.1-4.9,11-11,11h-1c1.8,0,3.2,1.4,3.2,3.2v12.3c0,2.9-2.4,5.3-5.3,5.3h109.3l3.8-8.2h-43.8Z"/>
        <polygon class="cls-1" points="152.4 207.8 166.9 207.8 163.2 199.6 152.4 199.6 152.4 207.8"/>
        <polygon class="cls-2" points="166.9 76.3 163.1 87.7 163.2 87.7 207 87.7 203.2 76.3 206.3 76.3 206.3 73.2 175.6 73.2 162.5 73.2 162.5 76.3 166.9 76.3"/>
        <path class="cls-1" d="M189.1,141.3l-.5.4-.5-.4c-.2-.2-.4-.3-.6-.5-.4.7-.9,1.4-1.4,2,.6,1.2,1.5,2.3,2.5,3.3,1.1-.9,1.9-2.1,2.5-3.3-.6-.6-1-1.3-1.4-2-.2.2-.4.3-.6.5Z"/>
        <path class="cls-1" d="M183.3,133.8c-.9,1.1-2,2.1-3.2,2.8.5,2.4,1.7,4.6,3.6,6.2,1.1-.9,1.9-2,2.5-3.3-1.4-1.7-2.4-3.6-2.9-5.8Z"/>
        <path class="cls-1" d="M193.8,133.8c-.4,2.1-1.4,4.1-2.9,5.8.6,1.2,1.5,2.3,2.5,3.3,1.9-1.6,3.1-3.8,3.6-6.2-1.2-.8-2.3-1.7-3.2-2.8Z"/>
        <path class="cls-1" d="M192.3,131.5c-.4-.8-.7-1.6-.9-2.5-.7.8-1.4,1.6-2.3,2.3l-.5.4-.5-.4c-.9-.7-1.6-1.4-2.3-2.3-.2.9-.6,1.7-.9,2.5,0,3.1,1.4,6,3.8,8,2.3-2,3.7-4.9,3.8-8Z"/>
        <path class="cls-1" d="M184,128.5h0c.2-.6.2-1.2.3-1.8-.4-.8-.7-1.7-1-2.7-1.9,1.2-4.2,1.9-6.5,1.9,0,.2-.1.3-.2.5-.8,3.1-.3,6.4,1.5,9.1,2.9-1.4,5-4,5.8-7.1Z"/>
        <path class="cls-1" d="M200.2,126.1c-2.3,0-4.5-.7-6.5-1.9-.2.9-.6,1.8-1,2.7,0,.6.2,1.2.3,1.8.8,3.1,2.9,5.7,5.8,7.1,1.8-2.7,2.3-5.9,1.5-9.1,0-.2-.1-.3-.2-.5Z"/>
        <path class="cls-1" d="M188.7,112.5h0s-.1,0-.1,0h-.1s0,0,0,0c-3.4-.4-6.8.7-9.3,3.2-2.3,2.3-3.4,5.4-3.2,8.6,2.7.2,5.5-.7,7.6-2.4l1.2-1,.2,1.5c.3,2.7,1.6,5.1,3.7,6.9,2-1.8,3.3-4.2,3.7-6.9l.2-1.5,1.2,1c2.1,1.7,4.9,2.5,7.6,2.4.2-3.2-1-6.3-3.2-8.6-2.4-2.4-5.8-3.6-9.3-3.2Z"/>
        <path class="cls-3" d="M132.8,133.6c.7,2,1.2,4.2,1.2,6.2,0,5.9-3.5,9.3-7.9,9.3s-4.4-1-5.9-2.9l-2.7,2.7c2.4,1.8,5.4,2.9,8.6,2.9,7.9,0,14.4-6.5,14.4-14.4s-1.1-6.2-2.9-8.6l-4.7,4.7Z"/>
        <path class="cls-3" d="M118.4,142.3c-.2-.8-.3-1.6-.3-2.5,0-5.9,3.5-13.3,7.9-13.3s3.5,1.4,4.8,3.3l3.8-3.8c-2.4-1.8-5.4-3-8.6-3-7.9,0-14.4,6.5-14.4,14.4s1.1,6.2,3,8.6l3.8-3.8Z"/>
        <path class="cls-3" d="M90.6,107.6v17c5.3,5.3,8.6,12.6,8.6,20.7v7.7c0,1.8-1.4,3.2-3.2,3.2H32v7.5h51.7l-24.8,15.2c-3,1.8-6.8,1.8-9.8,0l-24.3-14.9c-5.1,1.1-9,5.1-9,9.9v3c0,5.6,5.3,10.2,11.8,10.2h69.4c6.1,0,11-4.9,11-11v-1.5c0-1-.2-1.9-.4-2.8h45v-64.2h-61.9ZM126.1,155.9c-10.2,0-18.4-8.3-18.4-18.4s8.3-18.4,18.4-18.4,18.4,8.3,18.4,18.4-8.3,18.4-18.4,18.4Z"/>
        <path class="cls-2" d="M126.1,126.5c-4.4,0-7.9,7.4-7.9,13.3s.1,1.7.3,2.5l12.5-12.5c-1.3-2-3-3.3-4.8-3.3Z"/>
        <path class="cls-2" d="M126.1,149.1c4.4,0,7.9-3.4,7.9-9.3s-.4-4.2-1.2-6.2l-12.6,12.7c1.5,1.8,3.5,2.9,5.9,2.9Z"/>
        <path class="cls-1" d="M126.1,119.1c-10.2,0-18.4,8.3-18.4,18.4s8.3,18.4,18.4,18.4,18.4-8.3,18.4-18.4-8.3-18.4-18.4-18.4ZM111.7,137.5c0-7.9,6.5-14.4,14.4-14.4s6.2,1.1,8.6,3l-3.8,3.8-12.5,12.5-3.8,3.8c-1.8-2.4-3-5.4-3-8.6ZM126.1,151.9c-3.2,0-6.2-1.1-8.6-2.9l2.7-2.7,12.6-12.7,4.7-4.7c1.8,2.4,2.9,5.4,2.9,8.6,0,7.9-6.5,14.4-14.4,14.4Z"/>
        <path class="cls-4" d="M77.5,107.6v9.4c5,1.4,9.5,4,13.1,7.6v-17h-13.1Z"/>
        <path class="cls-2" d="M108.5,79h-2.5c-8.7,1.2-15.4,8.7-15.4,17.7v10.9h61.9v-10.9c0-3.3-.9-6.3-2.4-9-.4-.7-.8-1.3-1.3-1.9-3.3-4.3-8.4-7-14.2-7h-1v-3.9h-25v4.1Z"/>
        <polygon class="cls-3" points="98.2 74.9 108.5 74.9 133.5 74.9 145.2 74.9 145.2 58.2 98.2 58.2 98.2 74.9"/>
        <polygon class="cls-4" points="98.2 58.2 77.5 58.2 77.5 74.9 89.2 74.9 98.2 74.9 98.2 58.2"/>
        <path class="cls-3" d="M319,72.6c-.3,7-2.2,13.8-5.4,19.9l-7.1,13.6c-3.6,6.9-5.5,14.6-5.5,22.4v38.1h8.1v-34.5h41.3v34.5h0v-38.1c0-7.8-1.9-15.5-5.5-22.4l-7.1-13.6c-3.2-6.2-5-13-5.4-19.9l-1.7-32.8h-10.3l-1.6,32.8Z"/>
        <path class="cls-4" d="M292.5,128.5v38.1h8.6v-38.1c0-7.8,1.9-15.5,5.5-22.4l7.1-13.6c3.2-6.2,5.1-13,5.4-19.9l1.6-32.8h-8.6l-1.6,32.8c-.4,7-2.2,13.8-5.4,19.9l-5.4,10.5-1.6,3.1c-3.6,6.9-5.5,14.6-5.5,22.4Z"/>
        <path class="cls-2" d="M327.5,162.4c-.2-.1-.4-.3-.6-.4,0,0,0,0,0,0l-5.2,3.1v-8.7l5.2,3.1s0,0,0,0c1.7-1.6,3.9-2.6,6.4-2.8l6.5-6.5c-2.2-1.7-4.9-2.7-7.8-2.7-7.1,0-12.9,5.8-12.9,12.9s.7,4.5,1.7,6.3h2.5l4.2-4.2Z"/>
        <path class="cls-2" d="M337.7,157.1c1.5.5,2.9,1.3,4,2.3.7.7.7,1.9,0,2.6-1.9,1.8-4.5,2.9-7.4,2.9s-2.6-.3-3.8-.7l-2.5,2.5h15.1c1.1-1.9,1.7-4,1.7-6.3s-1-5.6-2.7-7.8l-4.6,4.6Z"/>
        <path class="cls-2" d="M315.6,160.3c0-9,7.3-16.3,16.3-16.3s16.3,7.3,16.3,16.3-.5,4.4-1.3,6.3h3.5v-34.5h-41.3v34.5h7.6c-.8-2-1.3-4.1-1.3-6.3Z"/>
        <path class="cls-4" d="M326.9,159.4l-5.2-3.1v8.7l5.2-3.1s0,0,0,0c.2.2.4.3.6.4l5.8-5.8c-2.4.2-4.7,1.2-6.4,2.8,0,0,0,0,0,0Z"/>
        <path class="cls-4" d="M341.7,162c.7-.7.7-1.9,0-2.6-1.1-1.1-2.5-1.8-4-2.3l-7.1,7.1c1.2.4,2.4.7,3.8.7,2.8,0,5.4-1.1,7.4-2.9Z"/>
        <polygon class="cls-1" points="331 39.8 335.2 39.8 335.2 32.2 320.7 32.2 320.7 39.8 331 39.8"/>
        <polygon class="cls-3" points="320.7 32.2 307.9 32.2 307.9 39.8 312.1 39.8 320.7 39.8 320.7 32.2"/>
        <polygon class="cls-3" points="292.5 166.7 279.7 166.7 279.7 196.3 296.4 196.3 296.4 166.7 292.5 166.7"/>
        <path class="cls-1" d="M347,166.7c.8-2,1.3-4.1,1.3-6.3,0-9-7.3-16.3-16.3-16.3s-16.3,7.3-16.3,16.3.5,4.4,1.3,6.3h-20.5v29.7h65v-29.7h-14.4ZM343.2,166.7h-15.1l2.5-2.5,7.1-7.1,4.6-4.6c1.7,2.2,2.7,4.9,2.7,7.8s-.7,4.5-1.7,6.3ZM319,160.3c0-7.1,5.8-12.9,12.9-12.9s5.7,1,7.8,2.7l-6.5,6.5-5.8,5.8-4.2,4.2h-2.5c-1.1-1.9-1.7-4-1.7-6.3Z"/>
        <rect class="cls-1" x="385" y="166.7" width="11" height="29.7"/>
        <polygon class="cls-4" points="296.4 196.3 279.7 196.3 269 196.3 269 207.8 292.5 207.8 299.6 207.8 304.3 207.8 304.3 196.3 296.4 196.3"/>
        <polygon class="cls-3" points="396 196.3 385 196.3 385 166.7 368.3 166.7 368.3 196.3 361.4 196.3 304.3 196.3 304.3 207.8 350.6 207.8 407.2 207.8 407.2 196.3 396 196.3"/>
        <path class="cls-1" d="M99.1,202.5v-12.3c0-1.8-1.4-3.2-3.2-3.2H25.9v20.8h68c2.9,0,5.3-2.4,5.3-5.3Z"/>
        <path class="cls-3" d="M11.9,187c-1.8,0-3.2,1.4-3.2,3.2v12.3c0,2.9,2.4,5.3,5.3,5.3h11.8v-20.8h-13.9Z"/>
        <path class="cls-3" d="M11,187h.8c-3.1,0-6-1.1-8.1-2.8,1.9,1.7,4.5,2.8,7.3,2.8Z"/>
        <path class="cls-3" d="M3.3,183.9c-.1,0-.2-.2-.3-.3.1.1.2.2.3.3Z"/>
        <path class="cls-3" d="M11,163.6c-2.8,0-5.3,1.1-7.3,2.8,2.1-1.7,4.9-2.8,8.1-2.8h-.8Z"/>
        <path class="cls-3" d="M3,167c.1-.1.2-.2.3-.3-.1.1-.2.2-.3.3Z"/>
        <path class="cls-4" d="M27.5,187c-6.5,0-11.8-4.6-11.8-10.2v-3c0-4.8,3.8-8.8,9-9.9l-.5-.3h7.8v-7.5H12.4v7.5h-.6c-3.1,0-6,1.1-8.1,2.8-.1,0-.2.2-.3.3-.1,0-.2.2-.3.3-1.9,1.8-3,4.2-3,6.8v3c0,2.6,1.2,5,3,6.8.1.1.2.2.3.3.1,0,.2.2.3.3,2.1,1.7,4.9,2.8,8.1,2.8h15.8Z"/>
        <path class="cls-2" d="M58.8,178.9l24.8-15.2H24.2l.5.3,24.3,14.9c3,1.8,6.8,1.8,9.8,0Z"/>
        <path class="cls-1" d="M25.9,145.3v10.9h70.1c1.8,0,3.2-1.4,3.2-3.2v-7.7c0-8.1-3.3-15.4-8.6-20.7-3.6-3.6-8.1-6.2-13.1-7.6v-9.4h13.1v-10.9c0-9,6.7-16.5,15.4-17.7h2.5v-4.1h-19.3v3.9h-1c-3.7,0-7.2,1.1-10,3.1-2.4,1.6-4.4,3.8-5.7,6.3-.3.5-.5,1-.8,1.6-.9,2.1-1.4,4.5-1.4,7v19.2c-.2,0-.3,0-.5,0h-14.6c-16.2,0-29.4,13.1-29.4,29.4ZM82.2,126.1c.3-.5,1-.5,1.3,0,.2.3.3.7.3,1.1s-.1.8-.3,1.2c-.3.5-1,.5-1.2,0-.2-.3-.3-.7-.3-1.2s0-.8.3-1.1ZM73.8,131.8c-.3.5-1,.5-1.2,0-.2-.3-.3-.7-.3-1.2s0-.8.3-1.1c.3-.5,1-.5,1.3,0,.2.3.3.7.3,1.1s-.1.8-.3,1.2ZM75.6,122.6c-.3.5-1,.5-1.2,0-.2-.3-.3-.7-.3-1.2s0-.8.3-1.1c.3-.5,1-.5,1.3,0,.2.3.3.7.3,1.1s-.1.8-.3,1.2ZM67.1,120.3c.3-.5,1-.5,1.3,0,.2.3.3.7.3,1.1s-.1.8-.3,1.2c-.3.5-1,.5-1.2,0-.2-.3-.3-.7-.3-1.2s0-.8.3-1.1ZM60.4,124.5c.3-.5,1-.5,1.3,0,.2.3.3.7.3,1.1s-.1.8-.3,1.2c-.3.5-1,.5-1.2,0-.2-.3-.3-.7-.3-1.2s0-.8.3-1.1ZM52.4,120.3c.3-.5,1-.5,1.3,0,.2.3.3.7.3,1.1s-.1.8-.3,1.2c-.3.5-1,.5-1.2,0-.2-.3-.3-.7-.3-1.2s0-.8.3-1.1ZM46,128c.3-.5,1-.5,1.3,0,.2.3.3.7.3,1.1s-.1.8-.3,1.2c-.3.5-1,.5-1.2,0-.2-.3-.3-.7-.3-1.2s0-.8.3-1.1Z"/>
        <path class="cls-3" d="M25.9,145.3c0-16.2,13.1-29.4,29.4-29.4h-17.2c-16.2,0-29.4,13.1-29.4,29.4v7.7c0,1.8,1.4,3.2,3.2,3.2h14v-10.9Z"/>
        <path class="cls-2" d="M61.7,126.8c.2-.3.3-.7.3-1.2s0-.8-.3-1.1c-.3-.5-1-.5-1.3,0-.2.3-.3.7-.3,1.1s.1.8.3,1.2c.3.5,1,.5,1.2,0Z"/>
        <path class="cls-2" d="M53.6,122.6c.2-.3.3-.7.3-1.2s0-.8-.3-1.1c-.3-.5-1-.5-1.3,0-.2.3-.3.7-.3,1.1s.1.8.3,1.2c.3.5,1,.5,1.2,0Z"/>
        <path class="cls-2" d="M47.3,130.3c.2-.3.3-.7.3-1.2s0-.8-.3-1.1c-.3-.5-1-.5-1.3,0-.2.3-.3.7-.3,1.1s.1.8.3,1.2c.3.5,1,.5,1.2,0Z"/>
        <path class="cls-2" d="M68.4,122.6c.2-.3.3-.7.3-1.2s0-.8-.3-1.1c-.3-.5-1-.5-1.3,0-.2.3-.3.7-.3,1.1s.1.8.3,1.2c.3.5,1,.5,1.2,0Z"/>
        <path class="cls-2" d="M72.5,129.5c-.2.3-.3.7-.3,1.1s.1.8.3,1.2c.3.5,1,.5,1.2,0,.2-.3.3-.7.3-1.2s0-.8-.3-1.1c-.3-.5-1-.5-1.3,0Z"/>
        <path class="cls-2" d="M74.4,120.3c-.2.3-.3.7-.3,1.1s.1.8.3,1.2c.3.5,1,.5,1.2,0,.2-.3.3-.7.3-1.2s0-.8-.3-1.1c-.3-.5-1-.5-1.3,0Z"/>
        <path class="cls-2" d="M83.4,128.4c.2-.3.3-.7.3-1.2s0-.8-.3-1.1c-.3-.5-1-.5-1.3,0-.2.3-.3.7-.3,1.1s.1.8.3,1.2c.3.5,1,.5,1.2,0Z"/>
      </g>
    </g>
  </g>
</svg>