<?xml version="1.0" encoding="UTF-8"?>
<svg xmlns="http://www.w3.org/2000/svg" version="1.1" viewBox="0 0 194.1 121.3">
  <defs>
    <style>
      .cls-1 {
        fill: #04522d;
      }
    </style>
  </defs>
  <!-- Generator: Adobe Illustrator 28.7.1, SVG Export Plug-In . SVG Version: 1.2.0 Build 142)  -->
  <g>
    <g id="Layer_1">
      <g id="Layer_1-2" data-name="Layer_1">
        <g id="Layer_1-2">
          <g>
            <path class="cls-1" d="M18.5,6.4c-.3-1.1-.8-2.1-1.6-3.2l-.6-.8.6-.8h15.5c2.6,0,4.3-.3,5.2-.9l.8-.6.7.6v8.7l-1.4.5c-.8-2.5-1.7-4.2-2.5-5.2-.8-.9-2-1.4-3.5-1.4h-3.1c-1.2,0-2,.2-2.4.7-.4.4-.6,1.4-.6,2.8v9.9h5c1.4,0,2.4-.1,3.1-.4.7-.3,1.2-.8,1.5-1.7l.4-1,.9.6v7.8l-1.5.6-.3-1.5c-.2-1-.7-1.7-1.5-2-.8-.4-2.2-.6-4.1-.6h-3.5v10.6c0,1.4.2,2.3.6,2.8.4.4,1.4.7,2.8.7h3.4c1.4,0,2.5-.5,3.3-1.5s1.6-2.7,2.3-5.1l1.5.5v8.4l-.8.6c-.7-.5-1.4-.8-2.2-.9-.8-.2-2-.2-3.5-.2H15.6l-.5-1.3c1.2-.3,2-.6,2.5-.9.5-.3.9-.7,1-1.2.2-.5.3-1.3.3-2.4V10.8c0-1.9-.1-3.3-.4-4.4Z"/>
            <path class="cls-1" d="M48.4,19.7c-1,0-1.7-.3-2.3-.9s-.8-1.4-.8-2.5c0-1.6.8-2.9,2.3-3.8,1.6-1,3.6-1.4,6.1-1.4s5.3.7,7,2,2.6,3.1,2.6,5.3v12.1c0,1.3.5,2,1.4,2s1.7-.4,2.6-1l.6.7c-1.7,1.9-3.8,2.9-6.2,2.9s-2.5-.4-3.2-1c-.7-.7-1.2-1.8-1.3-3.3h-.3c-.7,1.4-1.7,2.4-3,3.2-1.2.8-2.6,1.2-4.2,1.2s-3.2-.5-4.3-1.6-1.6-2.5-1.6-4.3,1-3.6,2.9-4.8c1.9-1.2,4.5-1.7,7.8-1.7s1.5,0,2.6.1v-3.5c0-2.3-.3-3.9-.8-4.9-.6-1-1.5-1.5-2.7-1.5s-1.6.3-2.1.8c-.5.6-.8,1.3-.8,2.2,0,1.4.4,2.4,1.3,3.1-1,.6-2.1.8-3.5.8v-.2h0ZM57.1,23.9c-2.3,0-4.1.4-5.2,1.2-1.2.8-1.7,1.9-1.7,3.3s.3,1.7.8,2.2c.5.6,1.2.8,2.1.8,2.8,0,4.1-2.5,4.1-7.5h0Z"/>
            <path class="cls-1" d="M88.3,12.4c.9.9,1.4,2,1.4,3.3s-.4,2.3-1.1,3c-.7.8-1.7,1.2-2.9,1.2s-1.8-.2-2.6-.6c.8-.7,1.3-1.7,1.3-3.1s0-1.2-.4-1.5c-.3-.4-.7-.6-1.1-.6-1.1,0-2.1,1.1-2.8,3.4-.7,2.3-1.1,5.1-1.1,8.4s0,3.1.3,4.1c.2,1,.6,2,1.1,2.9l.6.7-.6.7h-10.1l-.4-1.2,1-.2c.7-.2,1.2-.5,1.5-.9.2-.4.4-1.2.4-2.3v-13.6c0-.9-.3-1.3-.9-1.3h-2.2l-.3-.8c.9-.8,2-1.4,3.3-2,1.3-.5,2.6-.8,4-.8s1.1.1,1.5.4c.4.3.6.7.6,1.1v5.1h.2c1-4.5,3-6.8,6-6.8s2.7.4,3.6,1.3h-.3Z"/>
            <path class="cls-1" d="M95.2,33.6c-.8-.9-1.3-2.3-1.3-4.2v-14.8h-3.5v-1.5c0-.2.4-.4.8-.6,1.5-.4,2.8-1.1,3.6-2s1.6-2.2,2.2-3.8c0-.5.4-.8.7-.9.3,0,1.1-.2,2.4-.2v6.3h5.7c0,.6,0,1.2-.3,1.6-.2.5-.4.9-.8,1.1h-4.7v15.7c0,1.4.6,2.1,1.8,2.1s1.1-.2,1.7-.5,1.2-.8,1.7-1.3l.6.7c-2,2.4-4.2,3.6-6.7,3.6s-3.3-.4-4.1-1.3h.2Z"/>
            <path class="cls-1" d="M133.4,32.4c.9,0,1.8-.4,2.6-1l.6.7c-1.7,1.9-3.8,2.9-6.1,2.9s-2.9-.4-3.6-1.3c-.7-.9-1.1-2.3-1.1-4.2v-10.7c0-2.7-.9-4.1-2.6-4.1s-3,1.1-4.1,3.4c-1,2.3-1.5,5.3-1.5,9s0,2.6.3,3.5c.2.9.6,1.7,1.1,2.4l.6.7-.6.7h-10.1l-.4-1.2,1-.2c.7-.2,1.2-.5,1.5-.9.2-.4.3-1.2.3-2.3V4.7c0-.4,0-.7-.2-.9s-.4-.4-.7-.4h-2.2l-.3-.7c.9-.8,2-1.5,3.5-2,1.4-.5,2.8-.7,4.2-.7s1.1.1,1.5.4c.4.3.6.6.6,1.1v17.3c.7-2.2,1.8-4,3.5-5.5s3.4-2.2,5.3-2.2,3.5.7,4.4,2,1.4,3.4,1.4,6.2v11.1c0,1.4.4,2.1,1.3,2.1h-.2Z"/>
            <path class="cls-1" d="M148.3,32.4c.9,0,1.8-.4,2.6-1l.6.7c-1.6,1.9-3.7,2.9-6.1,2.9s-2.8-.4-3.6-1.2c-.7-.8-1.1-2-1.1-3.7V4.4c0-.7-.3-1-.9-1h-2.2l-.2-.7c.9-.8,2-1.5,3.5-2,1.4-.5,2.8-.7,4.2-.7s1.1.1,1.4.4c.3.3.5.6.5,1.1v28.8c0,1.4.4,2.1,1.3,2.1Z"/>
            <path class="cls-1" d="M175.9,11.2v23.1c0,3.7-1.1,6.5-3.2,8.6-2.1,2-5.1,3-8.9,3s-4.2-.4-5.7-1.3c-1.4-.9-2.2-2.1-2.2-3.5s.4-2.3,1.1-3c.7-.8,1.7-1.2,2.9-1.2s1.8.2,2.6.6c-.8.8-1.3,2-1.3,3.4s.3,1.9.9,2.5c.6.7,1.4,1,2.4,1,3.3,0,4.9-2.7,4.9-8v-8.9c-.6,1.8-1.7,3.2-3.2,4.4-1.5,1.1-3.1,1.7-4.9,1.7s-3.6-.6-4.5-1.9c-1-1.3-1.5-3.2-1.5-5.7v-10.4c0-.7-.3-1-.9-1h-2.2l-.2-.8c.9-.8,2.1-1.4,3.5-2,1.4-.5,2.8-.8,4.1-.8s1.1.1,1.4.4c.4.3.5.7.5,1.1v14.1c0,2.6.8,3.9,2.4,3.9s2.9-1,3.8-2.9c1-1.9,1.5-4.5,1.5-7.6s-.1-3.1-.4-4.1c-.3-1.1-.7-2-1.3-2.8l-.6-.8.5-.6,8-.6h.5,0Z"/>
          </g>
          <g>
            <path class="cls-1" d="M29.4,58.3l-.6.8c-.7.8-1.1,1.8-1.3,2.7-.2,1-.3,2.5-.3,4.5v6l-.7.3-3.6-1.9c-2.3,1.5-4.9,2.2-7.7,2.2-4.7,0-8.4-1.5-11.1-4.5-2.7-3-4.1-7.1-4.1-12.2s1.5-9.4,4.4-12.5c3-3.1,7-4.6,12-4.6s5.8.6,7.9,1.9c2,1.2,3,2.9,3,4.9s-.8,3.5-2.4,4.6-3.7,1.7-6.2,1.7c.7-.8,1.2-1.6,1.5-2.6.4-.9.6-2.1.6-3.5s-.5-2.9-1.4-3.8c-.9-1-2.1-1.4-3.5-1.4-2.6,0-4.7,1.4-6.3,4.2s-2.3,6.6-2.3,11.2.4,5.2,1.2,7.4c.8,2.2,1.9,3.9,3.4,5.1,1.4,1.2,3.1,1.8,5,1.8s2.8-.3,4.1-.8v-6.3c0-1.1,0-1.9-.3-2.3-.2-.5-.5-.9-1-1.2s-1.4-.6-2.5-.9l.4-1.3h11.3l.6.8v-.3h-.1Z"/>
            <path class="cls-1" d="M35.7,52.3c2.1-2.1,5-3.2,8.6-3.2s6.5,1.1,8.7,3.3c2.1,2.2,3.2,5.1,3.2,8.7s-1.1,6.5-3.2,8.7-5,3.2-8.7,3.2-6.5-1.1-8.6-3.2-3.2-5-3.2-8.7,1.1-6.6,3.2-8.7h0ZM47.9,53.5c-.9-2-2-3-3.4-3s-2.7,1-3.6,2.9c-.9,1.9-1.4,4.5-1.4,7.6s.4,5.7,1.3,7.6c.9,1.9,2,2.8,3.5,2.8s2.6-.9,3.6-2.8c.9-1.9,1.4-4.4,1.4-7.4s-.4-5.7-1.3-7.7h0Z"/>
            <path class="cls-1" d="M73.2,71c-1.6,1.3-3.3,2-5.1,2s-3.6-.7-4.5-2c-1-1.3-1.5-3.3-1.5-6v-11.4c0-.7-.3-1-.9-1h-2.2l-.2-.8c.9-.8,2.1-1.4,3.5-2,1.4-.5,2.8-.8,4.1-.8s1.1,0,1.4.4c.3.3.5.7.5,1.1v14c0,1.6.2,2.8.7,3.7.5.9,1.1,1.3,2,1.3,1.7,0,3.1-1.1,4.2-3.2,1-2.1,1.6-4.9,1.6-8.3s0-3.2-.4-4.2-.7-1.9-1.4-2.6l-.6-.8.6-.6,8-.6v19.1c0,1.4.4,2.1,1.3,2.1s1.7-.4,2.6-1l.6.7c-1.6,1.9-3.7,2.9-6.1,2.9s-3-.5-3.7-1.5-1-2.8-1-5.5c-.7,2.1-1.8,3.7-3.4,5h0Z"/>
            <path class="cls-1" d="M108.4,50.3c.9.9,1.4,2,1.4,3.3s-.4,2.3-1.1,3c-.7.8-1.7,1.2-2.9,1.2s-1.8-.2-2.6-.6c.8-.7,1.3-1.7,1.3-3.1s0-1.2-.4-1.5c-.3-.4-.7-.6-1.1-.6-1.1,0-2.1,1.1-2.8,3.4-.7,2.3-1.1,5.1-1.1,8.4s0,3.1.3,4.1c.2,1,.6,2,1.1,2.9l.6.7-.6.7h-10.1l-.4-1.2,1-.2c.7-.2,1.2-.5,1.5-.9.2-.4.4-1.2.4-2.3v-13.6c0-.9-.3-1.3-.9-1.3h-2.2l-.3-.8c.9-.8,2-1.4,3.3-2,1.3-.5,2.6-.8,4-.8s1.1,0,1.5.4c.4.3.6.7.6,1.1v5.1h.2c1-4.5,3-6.8,6-6.8s2.7.4,3.6,1.3h-.3Z"/>
            <path class="cls-1" d="M135.1,56.7h.1c.7-2.2,1.7-4.1,3.2-5.5s3.1-2.2,4.8-2.2,3.5.7,4.4,2,1.4,3.4,1.4,6.2v11.1c0,1.4.4,2.1,1.3,2.1s1.8-.4,2.6-1l.6.7c-1.7,1.9-3.8,2.9-6.1,2.9s-2.9-.5-3.6-1.4c-.7-.9-1-2.5-1-4.8v-10.1c0-2.7-.9-4.1-2.7-4.1s-2.7,1.2-3.5,3.7-1.3,5.4-1.3,8.6.2,2.6.4,3.4.6,1.7,1.1,2.4l.6.7-.6.7h-7.8v-15.6c0-2.7-.9-4.1-2.7-4.1s-2.7,1.2-3.5,3.7-1.3,5.4-1.3,8.6,0,2.6.3,3.4.6,1.7,1.2,2.4l.6.7-.6.7h-10.1l-.4-1.2,1-.2c.7-.2,1.2-.5,1.5-.9.2-.4.3-1.2.3-2.3v-13.6c0-.7-.3-1-.9-1h-2.2l-.2-.7c.9-.8,2.1-1.4,3.5-2,1.4-.5,2.8-.8,4.2-.8s1.1,0,1.4.4c.3.3.5.6.5,1.1v5.7c.6-2.1,1.6-4,3.1-5.5,1.4-1.5,3.1-2.2,4.9-2.2s3.3.6,4.2,1.9c.9,1.2,1.4,3.2,1.4,5.8v.3h0Z"/>
            <path class="cls-1" d="M172.4,69.9c1-.5,2-1.3,3-2.5l.8.6c-1.1,1.5-2.4,2.7-4.1,3.6s-3.5,1.3-5.4,1.3-4.1-.5-5.8-1.5-3-2.4-4-4.2c-1-1.8-1.5-3.8-1.5-6.1,0-3.6,1.1-6.5,3.3-8.7s5.2-3.3,8.9-3.3,4.7.6,6.4,1.9c1.7,1.2,2.5,2.8,2.5,4.8s-.9,4-2.8,5.4c-1.9,1.3-4.5,2-7.7,2s-2.5,0-3.6-.3c.2,2.4.9,4.3,2.1,5.7,1.2,1.4,2.6,2.1,4.3,2.1s2.5-.2,3.6-.7h0ZM163.5,53.4c-.8,1.8-1.2,4.2-1.2,7.3v1.1h1.9c2-.2,3.5-.9,4.5-1.9s1.6-2.4,1.6-4.2-.3-2.6-.9-3.5c-.6-.9-1.4-1.4-2.4-1.4s-2.6.9-3.4,2.6h-.1Z"/>
            <path class="cls-1" d="M183.2,71.6c-.8-.9-1.3-2.3-1.3-4.2v-14.8h-3.5c0-.8,0-1.3.1-1.5,0-.2.4-.4.8-.6,1.5-.4,2.8-1.1,3.6-2s1.6-2.2,2.2-3.8c.1-.5.4-.8.7-.9.3,0,1.1-.2,2.4-.2v6.3h5.7c0,.6,0,1.2-.3,1.6-.2.5-.4.9-.8,1.1h-4.7v15.7c0,1.4.6,2.1,1.8,2.1s1.1-.2,1.7-.5c.6-.3,1.2-.8,1.7-1.3l.6.7c-2,2.4-4.2,3.6-6.7,3.6s-3.3-.4-4.1-1.3h.1Z"/>
          </g>
          <g>
            <path class="cls-1" d="M32.2,109.3c-1.4-1-2.1-2.4-2.1-4s.7-3.2,2.2-4.3c1.5-1.1,3.3-1.8,5.5-2l.2.5c-.6.5-1.1,1.3-1.5,2.3s-.6,2.1-.6,3.3.2,2.1.7,2.9,1.2,1.2,2.1,1.2,2-.6,2.5-1.7c.6-1.2.8-2.8.8-4.9v-18.3c0-1.3,0-2.2-.3-2.8-.2-.6-.6-1.1-1.1-1.4s-1.4-.7-2.5-1.1l.5-1.3h12.2l.6.8-.6.8c-.7,1-1.3,2.1-1.6,3.2s-.5,2.6-.5,4.4v11.4c0,8.5-3.7,12.7-11,12.7s-4.2-.5-5.6-1.6h0Z"/>
            <path class="cls-1" d="M59.4,95.6c-1,0-1.7-.3-2.3-.9s-.8-1.4-.8-2.5c0-1.6.8-2.9,2.3-3.8,1.6-1,3.6-1.4,6.1-1.4s5.3.7,7,2,2.6,3.1,2.6,5.3v12.1c0,1.3.5,2,1.4,2s1.7-.4,2.6-1l.6.7c-1.7,1.9-3.8,2.9-6.2,2.9s-2.5-.4-3.2-1c-.7-.7-1.2-1.8-1.3-3.3h-.3c-.7,1.4-1.7,2.4-3,3.2-1.2.8-2.6,1.2-4.2,1.2s-3.2-.5-4.3-1.6-1.6-2.5-1.6-4.3,1-3.6,2.9-4.8c1.9-1.2,4.5-1.7,7.8-1.7s1.5,0,2.6,0v-3.5c0-2.3-.3-3.9-.8-4.9-.6-1-1.5-1.5-2.7-1.5s-1.6.3-2.1.8c-.5.6-.8,1.3-.8,2.2,0,1.4.4,2.4,1.3,3.1-1,.6-2.1.8-3.5.8v-.2h-.1ZM68.1,99.9c-2.3,0-4.1.4-5.2,1.2-1.2.8-1.7,1.9-1.7,3.3s.3,1.7.8,2.2c.5.6,1.2.8,2.1.8,2.8,0,4.1-2.5,4.1-7.5h0Z"/>
            <path class="cls-1" d="M102.9,90.2c1.5,2.1,2.2,4.8,2.2,8.2s-.4,4.5-1.3,6.4-2.1,3.4-3.6,4.4c-1.6,1-3.3,1.6-5.3,1.6s-2.2-.2-3.2-.5c-1-.4-1.9-.9-2.6-1.5v8c0,1.1.2,1.9.5,2.3s1,.7,2.1.9l.9.2-.4,1.2h-10.8l-.6-.7.6-.7c.6-.7.9-1.6,1.2-2.4.2-.9.3-2,.3-3.5v-22c0-.8-.3-1.3-.9-1.3h-2.2l-.2-.8c.9-.8,2-1.4,3.5-2,1.4-.5,2.8-.8,4.2-.8s1.1,0,1.4.4c.4.3.5.7.5,1.1v3.1c1.2-1.7,2.4-2.9,3.7-3.7,1.3-.8,2.7-1.2,4.3-1.2,2.4,0,4.3,1,5.8,3.1v.2h0ZM96.6,106.2c1-1.6,1.5-4,1.5-7.2s-.4-4.9-1.1-6.3c-.7-1.5-1.8-2.2-3.2-2.2s-3.4,1.2-4.6,3.7v13.6c.9.6,1.9.9,3.1.9,1.9,0,3.4-.8,4.4-2.4h-.1Z"/>
            <path class="cls-1" d="M112.9,95.6c-1,0-1.8-.3-2.3-.9-.6-.6-.8-1.4-.8-2.5,0-1.6.8-2.9,2.3-3.8,1.6-1,3.6-1.4,6.1-1.4s5.3.7,7,2,2.6,3.1,2.6,5.3v12.1c0,1.3.5,2,1.4,2s1.8-.4,2.6-1l.6.7c-1.7,1.9-3.8,2.9-6.2,2.9s-2.5-.4-3.2-1c-.7-.7-1.2-1.8-1.3-3.3h-.3c-.7,1.4-1.7,2.4-3,3.2s-2.6,1.2-4.2,1.2-3.2-.5-4.3-1.6c-1.1-1.1-1.6-2.5-1.6-4.3s1-3.6,2.9-4.8c1.9-1.2,4.5-1.7,7.8-1.7s1.5,0,2.6,0v-3.5c0-2.3-.3-3.9-.8-4.9-.6-1-1.5-1.5-2.7-1.5s-1.6.3-2.1.8-.8,1.3-.8,2.2c0,1.4.4,2.4,1.3,3.1-1,.6-2.1.8-3.5.8v-.2h-.1ZM121.5,99.9c-2.3,0-4.1.4-5.2,1.2s-1.8,1.9-1.8,3.3.3,1.7.8,2.2c.5.6,1.2.8,2.1.8,2.8,0,4.1-2.5,4.1-7.5Z"/>
            <path class="cls-1" d="M159.5,108.4c.9,0,1.8-.4,2.6-1l.6.7c-1.7,1.9-3.8,2.9-6.1,2.9s-2.9-.4-3.6-1.3c-.7-.9-1.1-2.3-1.1-4.2v-10.7c0-2.7-.9-4.1-2.6-4.1s-3,1.1-4.1,3.4c-1,2.3-1.6,5.3-1.6,9s.1,2.5.3,3.4.6,1.7,1.1,2.5l.6.7-.6.7h-10.1l-.4-1.2,1-.2c.7-.2,1.2-.5,1.5-.9.2-.4.3-1.2.3-2.3v-13.6c0-.9-.3-1.3-.9-1.3h-2.2l-.2-.8c.9-.8,2.1-1.4,3.5-2,1.4-.5,2.8-.8,4.2-.8s1.1,0,1.4.4c.3.3.5.7.5,1.1v6c.7-2.2,1.8-4,3.5-5.5s3.5-2.2,5.3-2.2,3.5.7,4.4,2,1.4,3.4,1.4,6.2v11.1c0,1.4.4,2.1,1.3,2.1h0Z"/>
          </g>
        </g>
      </g>
    </g>
  </g>
</svg>
