<?xml version="1.0" encoding="UTF-8"?>
<svg xmlns="http://www.w3.org/2000/svg" version="1.1" viewBox="0 0 440.3 39.1">
  <defs>
    <style>
      .cls-1 {
        fill: #04522d;
      }
    </style>
  </defs>
  <!-- Generator: Adobe Illustrator 28.7.1, SVG Export Plug-In . SVG Version: 1.2.0 Build 142)  -->
  <g>
    <g id="Layer_1">
      <g id="Layer_1-2" data-name="Layer_1">
        <g id="Layer_1-2">
          <g>
            <path class="cls-1" d="M2.9,5.4c-.2-.9-.7-1.8-1.4-2.7l-.5-.7.5-.7h13.2c2.2,0,3.7-.3,4.4-.8l.7-.5.6.5v7.5l-1.2.4c-.7-2.1-1.4-3.6-2.1-4.4-.7-.8-1.7-1.2-3-1.2h-2.7c-1,0-1.7.2-2,.6s-.5,1.2-.5,2.4v8.5h4.3c1.2,0,2.1-.1,2.7-.4.6-.2,1-.7,1.3-1.4l.3-.8.8.5v6.7l-1.3.5-.2-1.3c-.2-.8-.6-1.4-1.3-1.7-.7-.3-1.9-.5-3.5-.5h-3v9c0,1.2.2,2,.5,2.4.4.4,1.2.6,2.4.6h2.9c1.2,0,2.1-.4,2.8-1.3.7-.8,1.4-2.3,2-4.4l1.3.4v7.2l-.7.5c-.6-.4-1.2-.7-1.9-.8-.7-.1-1.7-.2-3-.2H.4l-.4-1.1c1-.3,1.7-.5,2.1-.8.4-.3.7-.6.9-1s.2-1.1.2-2v-15.1c0-1.6,0-2.8-.4-3.8h.1Z"/>
            <path class="cls-1" d="M28.4,16.8c-.8,0-1.5-.2-2-.7s-.7-1.2-.7-2.1c0-1.4.7-2.4,2-3.2s3.1-1.2,5.2-1.2,4.5.6,6,1.7c1.5,1.1,2.2,2.6,2.2,4.5v10.3c0,1.1.4,1.7,1.2,1.7s1.5-.3,2.2-.9l.5.6c-1.5,1.6-3.2,2.4-5.2,2.4s-2.1-.3-2.7-.9c-.6-.6-1-1.5-1.1-2.8h-.2c-.6,1.2-1.5,2.1-2.5,2.7-1.1.7-2.3,1-3.6,1s-2.7-.5-3.6-1.4-1.4-2.2-1.4-3.7.8-3.1,2.4-4.1,3.8-1.5,6.6-1.5,1.3,0,2.2.1v-3c0-1.9-.2-3.3-.7-4.2s-1.3-1.3-2.3-1.3-1.4.2-1.8.7-.7,1.1-.7,1.8c0,1.2.4,2.1,1.1,2.7-.8.5-1.8.7-3,.7h0ZM35.8,20.4c-2,0-3.5.3-4.5,1s-1.5,1.6-1.5,2.8.2,1.4.7,1.9c.4.5,1,.7,1.8.7,2.3,0,3.5-2.1,3.5-6.4Z"/>
            <path class="cls-1" d="M62.4,10.5c.8.7,1.2,1.7,1.2,2.8s-.3,1.9-1,2.6c-.6.7-1.5,1-2.5,1s-1.5-.2-2.2-.5c.7-.6,1.1-1.5,1.1-2.7s0-1-.4-1.3c-.2-.3-.6-.5-1-.5-1,0-1.7,1-2.4,2.9-.6,1.9-1,4.3-1,7.2s0,2.6.3,3.5c.2.9.5,1.7.9,2.4l.5.6-.5.6h-8.6l-.4-1,.8-.2c.6-.2,1.1-.4,1.3-.7.2-.3.3-1,.3-2v-11.6c0-.8-.3-1.1-.8-1.1h-1.8l-.2-.7c.8-.7,1.7-1.2,2.8-1.7,1.1-.4,2.3-.7,3.4-.7s.9.1,1.3.4c.3.2.5.6.5,1v4.4h.2c.8-3.9,2.5-5.8,5.1-5.8s2.3.4,3.1,1.1h0Z"/>
            <path class="cls-1" d="M68.3,28.6c-.7-.7-1.1-1.9-1.1-3.6v-12.6h-3v-1.3c0-.2.3-.4.7-.5,1.3-.4,2.3-.9,3.1-1.7.8-.8,1.4-1.8,1.8-3.3,0-.4.3-.7.6-.8h2v5.4h4.9c0,.5,0,1-.2,1.4s-.4.7-.7.9h-4v13.4c0,1.2.5,1.8,1.5,1.8s.9-.1,1.5-.4c.5-.3,1-.7,1.5-1.1l.5.6c-1.7,2.1-3.6,3.1-5.7,3.1s-2.8-.4-3.5-1.1h0v-.2Z"/>
            <path class="cls-1" d="M100.7,27.6c.8,0,1.5-.3,2.2-.9l.5.6c-1.5,1.6-3.2,2.4-5.2,2.4s-2.5-.4-3.1-1.1-.9-1.9-.9-3.6v-9.1c0-2.3-.7-3.5-2.2-3.5s-2.6,1-3.5,2.9-1.3,4.5-1.3,7.6,0,2.2.3,3c.2.7.5,1.4.9,2.1l.5.6-.5.6h-8.6l-.4-1,.8-.2c.6-.2,1.1-.4,1.3-.7.2-.3.3-1,.3-2V4c0-.3,0-.6-.2-.8,0-.2-.3-.3-.6-.3h-1.8l-.2-.6c.8-.7,1.7-1.3,3-1.7,1.2-.4,2.4-.6,3.6-.6s.9.1,1.3.3c.3.2.5.5.5.9v14.7c.6-1.9,1.5-3.4,3-4.7,1.4-1.3,2.9-1.9,4.5-1.9s3,.6,3.7,1.7c.8,1.1,1.2,2.9,1.2,5.3v9.4c0,1.2.4,1.8,1.1,1.8h-.2Z"/>
            <path class="cls-1" d="M113.4,27.6c.8,0,1.5-.3,2.2-.9l.5.6c-1.4,1.6-3.1,2.4-5.2,2.4s-2.4-.3-3-1-1-1.7-1-3.1V3.8c0-.6-.3-.8-.8-.8h-1.9l-.2-.6c.8-.7,1.7-1.3,3-1.7,1.2-.4,2.4-.6,3.6-.6s.9,0,1.2.3c.3.2.4.5.4.9v24.6c0,1.2.4,1.8,1.1,1.8h.1Z"/>
            <path class="cls-1" d="M136.9,9.5v19.7c0,3.1-.9,5.6-2.7,7.3s-4.3,2.6-7.5,2.6-3.6-.4-4.8-1.1c-1.2-.8-1.8-1.8-1.8-3s.3-1.9,1-2.6c.6-.7,1.5-1,2.5-1s1.5.2,2.2.5c-.7.7-1.1,1.7-1.1,2.9s.3,1.6.8,2.1c.5.6,1.2.8,2.1.8,2.8,0,4.2-2.3,4.2-6.8v-7.6c-.5,1.5-1.4,2.8-2.7,3.7-1.3,1-2.7,1.5-4.1,1.5s-3-.5-3.9-1.6c-.8-1.1-1.3-2.7-1.3-4.9v-8.9c0-.6-.3-.8-.8-.8h-1.8l-.2-.7c.8-.7,1.7-1.2,3-1.7,1.2-.4,2.4-.7,3.5-.7s.9.1,1.2.4.4.6.4,1v12c0,2.2.7,3.3,2.1,3.3s2.4-.8,3.3-2.4,1.3-3.8,1.3-6.5-.1-2.6-.4-3.5c-.2-.9-.6-1.7-1.1-2.4l-.5-.7.4-.5,6.9-.5h-.2,0Z"/>
            <path class="cls-1" d="M176.6,17.3l-.5.7c-.6.7-.9,1.5-1.1,2.3s-.3,2.1-.3,3.8v5.1l-.6.2-3.1-1.6c-1.9,1.3-4.1,1.9-6.6,1.9-4,0-7.1-1.3-9.4-3.9-2.3-2.6-3.5-6.1-3.5-10.4s1.3-8,3.8-10.7c2.5-2.6,5.9-3.9,10.2-3.9s5,.5,6.7,1.6,2.6,2.4,2.6,4.1-.7,3-2.1,3.9c-1.4,1-3.1,1.4-5.2,1.4.6-.7,1-1.4,1.3-2.2s.5-1.8.5-3-.4-2.4-1.2-3.2-1.8-1.2-3-1.2c-2.2,0-4,1.2-5.3,3.6-1.3,2.4-2,5.6-2,9.6s.3,4.4,1,6.3c.7,1.8,1.7,3.3,2.9,4.3s2.6,1.5,4.2,1.5,2.3-.2,3.5-.7v-5.4c0-.9,0-1.6-.2-2s-.5-.8-.9-1c-.4-.3-1.2-.5-2.1-.8l.4-1.1h9.6l.5.7h0Z"/>
            <path class="cls-1" d="M182,12.2c1.8-1.8,4.3-2.7,7.4-2.7s5.6.9,7.4,2.8c1.8,1.8,2.7,4.3,2.7,7.4s-.9,5.6-2.7,7.4-4.3,2.7-7.4,2.7-5.6-.9-7.4-2.7c-1.8-1.8-2.7-4.3-2.7-7.4s.9-5.6,2.7-7.5ZM192.3,13.2c-.8-1.7-1.7-2.5-2.9-2.5s-2.3.8-3.1,2.5c-.8,1.6-1.2,3.8-1.2,6.5s.4,4.8,1.1,6.4c.7,1.6,1.7,2.4,3,2.4s2.2-.8,3-2.4,1.2-3.7,1.2-6.3-.4-4.8-1.1-6.5h0Z"/>
            <path class="cls-1" d="M213.9,28.1c-1.4,1.1-2.8,1.7-4.4,1.7s-3-.6-3.9-1.7c-.8-1.1-1.3-2.8-1.3-5.1v-9.7c0-.6-.3-.8-.8-.8h-1.8l-.2-.7c.8-.7,1.8-1.2,3-1.7,1.2-.4,2.4-.7,3.5-.7s.9.1,1.2.4.4.6.4,1v11.9c0,1.4.2,2.4.6,3.1s1,1.1,1.7,1.1c1.5,0,2.7-.9,3.5-2.7s1.3-4.2,1.3-7.1-.1-2.8-.3-3.6c-.2-.9-.6-1.6-1.2-2.2l-.5-.7.5-.5,6.9-.5v16.3c0,1.2.4,1.8,1.1,1.8s1.5-.3,2.2-.9l.5.6c-1.4,1.6-3.1,2.4-5.2,2.4s-2.6-.4-3.1-1.3c-.6-.9-.9-2.4-.9-4.6-.6,1.7-1.5,3.2-2.9,4.3h0Z"/>
            <path class="cls-1" d="M243.9,10.5c.8.7,1.2,1.7,1.2,2.8s-.3,1.9-1,2.6c-.6.7-1.5,1-2.5,1s-1.5-.2-2.2-.5c.7-.6,1.1-1.5,1.1-2.7s-.1-1-.4-1.3c-.2-.3-.6-.5-1-.5-1,0-1.7,1-2.4,2.9-.6,1.9-1,4.3-1,7.2s0,2.6.3,3.5c.2.9.5,1.7.9,2.4l.5.6-.5.6h-8.6l-.4-1,.8-.2c.6-.2,1.1-.4,1.3-.7.2-.3.3-1,.3-2v-11.6c0-.8-.3-1.1-.8-1.1h-1.8l-.2-.7c.8-.7,1.7-1.2,2.8-1.7,1.1-.4,2.3-.7,3.4-.7s.9.1,1.3.4c.3.2.5.6.5,1v4.4h.2c.8-3.9,2.5-5.8,5.1-5.8s2.3.4,3.1,1.1h0Z"/>
            <path class="cls-1" d="M266.6,16h.1c.6-1.9,1.5-3.5,2.7-4.7,1.3-1.2,2.6-1.8,4.1-1.8s3,.6,3.7,1.7c.8,1.1,1.2,2.9,1.2,5.3v9.4c0,1.2.4,1.8,1.1,1.8s1.5-.3,2.2-.9l.5.6c-1.5,1.6-3.2,2.4-5.2,2.4s-2.5-.4-3.1-1.2c-.6-.8-.9-2.1-.9-4.1v-8.6c0-2.3-.8-3.5-2.3-3.5s-2.3,1.1-3,3.2-1.1,4.6-1.1,7.4.1,2.2.3,2.9c.2.7.5,1.4.9,2.1l.5.6-.5.6h-6.6v-13.3c0-2.3-.8-3.5-2.3-3.5s-2.3,1.1-3,3.2c-.7,2.1-1.1,4.6-1.1,7.4s0,2.2.3,2.9c.2.7.5,1.4,1,2.1l.5.6-.5.6h-8.6l-.4-1,.8-.2c.6-.2,1.1-.4,1.3-.7.2-.3.3-1,.3-2v-11.6c0-.6-.3-.9-.8-.9h-1.9l-.2-.6c.8-.7,1.8-1.2,3-1.7,1.2-.4,2.4-.7,3.6-.7s.9.1,1.2.3.4.5.4.9v4.9c.5-1.8,1.4-3.4,2.6-4.7s2.6-1.9,4.2-1.9,2.8.5,3.6,1.6c.8,1.1,1.2,2.7,1.2,5h.2,0Z"/>
            <path class="cls-1" d="M298.4,27.2c.9-.4,1.7-1.1,2.6-2.1l.7.5c-.9,1.3-2.1,2.3-3.5,3.1-1.4.7-3,1.1-4.6,1.1s-3.5-.4-4.9-1.3c-1.5-.9-2.6-2.1-3.4-3.6s-1.3-3.3-1.3-5.2c0-3.1.9-5.6,2.8-7.4,1.9-1.8,4.4-2.8,7.5-2.8s4,.5,5.5,1.6c1.4,1.1,2.1,2.4,2.1,4.1s-.8,3.4-2.4,4.6c-1.6,1.1-3.8,1.7-6.6,1.7s-2.1,0-3-.2c.2,2.1.8,3.7,1.8,4.9,1,1.2,2.2,1.8,3.7,1.8s2.2-.2,3-.6v-.2h0ZM290.8,13.1c-.7,1.5-1,3.6-1,6.2v1c.4,0,1,0,1.6-.1,1.7-.2,3-.7,3.8-1.6.9-.9,1.3-2.1,1.3-3.5s-.3-2.2-.8-3-1.2-1.2-2.1-1.2-2.2.7-2.9,2.2c0,0,.1,0,.1,0Z"/>
            <path class="cls-1" d="M307.6,28.6c-.7-.7-1.1-1.9-1.1-3.6v-12.6h-3c0-.7,0-1.1.1-1.3,0-.2.3-.4.7-.5,1.3-.4,2.3-.9,3.1-1.7.8-.8,1.4-1.8,1.8-3.3.1-.4.3-.7.6-.8h2v5.4h4.9c0,.5,0,1-.2,1.4s-.4.7-.7.9h-4v13.4c0,1.2.5,1.8,1.5,1.8s.9-.1,1.5-.4c.5-.3,1-.7,1.5-1.1l.5.6c-1.7,2.1-3.6,3.1-5.7,3.1s-2.8-.4-3.5-1.1h0v-.2Z"/>
            <path class="cls-1" d="M329.2,28.4c-1.2-.9-1.8-2-1.8-3.4s.6-2.7,1.9-3.7,2.8-1.5,4.7-1.7l.2.4c-.5.4-.9,1.1-1.3,1.9-.3.9-.5,1.8-.5,2.8s.2,1.8.6,2.5,1,1,1.8,1,1.7-.5,2.1-1.5c.5-1,.7-2.4.7-4.2V6.9c0-1.1,0-1.9-.3-2.4s-.5-.9-.9-1.2-1.2-.6-2.1-.9l.4-1.1h10.4l.5.7-.5.7c-.6.9-1.1,1.8-1.3,2.7-.3,1-.4,2.2-.4,3.8v9.7c0,7.2-3.1,10.8-9.4,10.8s-3.6-.4-4.8-1.3h0Z"/>
            <path class="cls-1" d="M352.3,16.8c-.8,0-1.5-.2-2-.7s-.7-1.2-.7-2.1c0-1.4.7-2.4,2-3.2s3.1-1.2,5.2-1.2,4.5.6,6,1.7c1.5,1.1,2.2,2.6,2.2,4.5v10.3c0,1.1.4,1.7,1.2,1.7s1.5-.3,2.2-.9l.5.6c-1.5,1.6-3.2,2.4-5.2,2.4s-2.1-.3-2.7-.9-1-1.5-1.1-2.8h-.2c-.6,1.2-1.5,2.1-2.5,2.7-1.1.7-2.3,1-3.6,1s-2.7-.5-3.6-1.4-1.4-2.2-1.4-3.7.8-3.1,2.4-4.1,3.8-1.5,6.6-1.5,1.3,0,2.2.1v-3c0-1.9-.2-3.3-.7-4.2s-1.3-1.3-2.3-1.3-1.4.2-1.8.7-.7,1.1-.7,1.8c0,1.2.4,2.1,1.1,2.7-.8.5-1.8.7-3,.7h-.1ZM359.7,20.4c-2,0-3.5.3-4.5,1s-1.5,1.6-1.5,2.8.2,1.4.7,1.9c.4.5,1,.7,1.8.7,2.3,0,3.5-2.1,3.5-6.4Z"/>
            <path class="cls-1" d="M389.4,12.1c1.3,1.8,1.9,4.1,1.9,6.9s-.4,3.8-1.1,5.5c-.7,1.6-1.8,2.9-3.1,3.8-1.3.9-2.8,1.3-4.5,1.3s-1.9-.1-2.7-.4c-.9-.3-1.6-.7-2.2-1.3v6.8c0,1,.1,1.6.4,1.9.3.3.9.6,1.8.8l.8.2-.4,1h-9.2l-.5-.6.5-.6c.5-.6.8-1.3,1-2.1s.3-1.7.3-3V13.7c0-.7-.3-1.1-.8-1.1h-1.8l-.2-.7c.8-.7,1.7-1.2,3-1.7,1.2-.4,2.4-.7,3.5-.7s.9.1,1.2.4.4.6.4,1v2.6c1-1.4,2-2.5,3.1-3.1,1.1-.7,2.3-1,3.7-1,2,0,3.7.9,4.9,2.7h0ZM384,25.8c.9-1.4,1.3-3.4,1.3-6.1s-.3-4.1-1-5.4-1.5-1.9-2.7-1.9-2.9,1.1-3.9,3.2v11.6c.8.5,1.6.8,2.6.8,1.6,0,2.9-.7,3.7-2.1h0Z"/>
            <path class="cls-1" d="M397.9,16.8c-.8,0-1.5-.2-2-.7s-.7-1.2-.7-2.1c0-1.4.7-2.4,2-3.2s3.1-1.2,5.2-1.2,4.5.6,6,1.7c1.5,1.1,2.2,2.6,2.2,4.5v10.3c0,1.1.4,1.7,1.2,1.7s1.5-.3,2.2-.9l.5.6c-1.5,1.6-3.2,2.4-5.2,2.4s-2.1-.3-2.7-.9-1-1.5-1.1-2.8h-.2c-.6,1.2-1.5,2.1-2.5,2.7-1.1.7-2.3,1-3.6,1s-2.7-.5-3.6-1.4-1.4-2.2-1.4-3.7.8-3.1,2.4-4.1,3.8-1.5,6.6-1.5,1.3,0,2.2.1v-3c0-1.9-.2-3.3-.7-4.2s-1.3-1.3-2.3-1.3-1.4.2-1.8.7-.7,1.1-.7,1.8c0,1.2.4,2.1,1.1,2.7-.8.5-1.8.7-3,.7h-.1ZM405.3,20.4c-2,0-3.5.3-4.5,1s-1.5,1.6-1.5,2.8.2,1.4.7,1.9c.4.5,1,.7,1.8.7,2.3,0,3.5-2.1,3.5-6.4Z"/>
            <path class="cls-1" d="M437.6,27.6c.8,0,1.5-.3,2.2-.9l.5.6c-1.5,1.6-3.2,2.4-5.2,2.4s-2.5-.4-3.1-1.1-.9-1.9-.9-3.6v-9.1c0-2.3-.7-3.5-2.2-3.5s-2.6,1-3.5,2.9-1.3,4.5-1.3,7.6,0,2.2.3,2.9c.2.7.5,1.4,1,2.1l.5.6-.5.6h-8.6l-.4-1,.8-.2c.6-.2,1.1-.4,1.3-.7.2-.3.3-1,.3-2v-11.6c0-.8-.3-1.1-.8-1.1h-1.9l-.2-.7c.8-.7,1.8-1.2,3-1.7,1.2-.4,2.4-.7,3.6-.7s.9.1,1.2.4c.3.2.4.6.4,1v5.1c.6-1.9,1.5-3.4,3-4.7s2.9-1.9,4.5-1.9,3,.6,3.7,1.7c.8,1.1,1.2,2.9,1.2,5.3v9.4c0,1.2.4,1.8,1.1,1.8h0Z"/>
          </g>
        </g>
      </g>
    </g>
  </g>
</svg>
