<?xml version="1.0" encoding="UTF-8"?>
<svg xmlns="http://www.w3.org/2000/svg" version="1.1" viewBox="0 0 111.5 53.2">
  <defs>
    <style>
      .cls-1 {
        fill: #6ab647;
      }

      .cls-2 {
        fill: #05522d;
      }
    </style>
  </defs>
  <!-- Generator: Adobe Illustrator 28.7.1, SVG Export Plug-In . SVG Version: 1.2.0 Build 142)  -->
  <g>
    <g id="Layer_1">
      <g>
        <path class="cls-1" d="M19.8,37.6c-.7,0-1.2-.5-1.2-1.2s.5-1.2,1.2-1.2h13.7l-11.8-11.8h-12.4c-.7,0-1.2-.5-1.2-1.2s.5-1.2,1.2-1.2h10l-10.7-10.7c-.5-.5-.5-1.2,0-1.7s1.2-.5,1.7,0l10.7,10.7v-10c0-.7.5-1.2,1.2-1.2s1.2.5,1.2,1.2v12.4l11.8,11.8v-13.7c0-.7.5-1.2,1.2-1.2s1.2.5,1.2,1.2v16.1l10.4,10.4v-10.8C48,15.9,32.1,0,12.5,0H0v12.5c0,19.6,15.9,35.5,35.5,35.5h10.8l-10.4-10.4h-16.1Z"/>
        <path class="cls-2" d="M48,46.3l-10.4-10.4v-16.1c0-.7-.5-1.2-1.2-1.2s-1.2.5-1.2,1.2v13.7l-11.8-11.8v-12.4c0-.7-.5-1.2-1.2-1.2s-1.2.5-1.2,1.2v10l-10.7-10.7c-.5-.5-1.2-.5-1.7,0s-.5,1.2,0,1.7l10.7,10.7h-10c-.7,0-1.2.5-1.2,1.2s.5,1.2,1.2,1.2h12.4l11.8,11.8h-13.7c-.7,0-1.2.5-1.2,1.2s.5,1.2,1.2,1.2h16.1l10.4,10.4,4.8,4.8c.2.2.5.4.9.4s.6-.1.9-.4c.5-.5.5-1.2,0-1.7l-4.8-4.8Z"/>
        <path class="cls-1" d="M99,0c-19.6,0-35.5,15.9-35.5,35.5v10.8l10.4-10.4v-16.1c0-.7.5-1.2,1.2-1.2s1.2.5,1.2,1.2v13.7l11.8-11.8v-12.4c0-.7.5-1.2,1.2-1.2s1.2.5,1.2,1.2v10l10.7-10.7c.5-.5,1.2-.5,1.7,0s.5,1.2,0,1.7l-10.7,10.7h10c.7,0,1.2.5,1.2,1.2s-.5,1.2-1.2,1.2h-12.4l-11.8,11.8h13.7c.7,0,1.2.5,1.2,1.2s-.5,1.2-1.2,1.2h-16.1l-10.4,10.4h10.8c19.6,0,35.5-15.9,35.5-35.5V0h-12.5Z"/>
        <path class="cls-2" d="M91.7,37.6c.7,0,1.2-.5,1.2-1.2s-.5-1.2-1.2-1.2h-13.7l11.8-11.8h12.4c.7,0,1.2-.5,1.2-1.2s-.5-1.2-1.2-1.2h-10l10.7-10.7c.5-.5.5-1.2,0-1.7s-1.2-.5-1.7,0l-10.7,10.7v-10c0-.7-.5-1.2-1.2-1.2s-1.2.5-1.2,1.2v12.4l-11.8,11.8v-13.7c0-.7-.5-1.2-1.2-1.2s-1.2.5-1.2,1.2v16.1l-10.4,10.4-4.8,4.8c-.5.5-.5,1.2,0,1.7s.5.4.9.4.6-.1.9-.4l4.8-4.8,10.4-10.4h16.1Z"/>
      </g>
    </g>
  </g>
</svg>
